<?xml version="1.0" standalone="no"?><!DOCTYPE svg PUBLIC "-//W3C//DTD SVG 1.1//EN" "http://www.w3.org/Graphics/SVG/1.1/DTD/svg11.dtd"><svg t="1646489767327" class="icon" viewBox="0 0 1024 1024" version="1.1" xmlns="http://www.w3.org/2000/svg" p-id="3502" xmlns:xlink="http://www.w3.org/1999/xlink" width="200" height="200"><defs><style type="text/css"></style></defs><path d="M681.6768 121.258667c40.226133 0 77.550933 6.0416 111.1552 16.128 18.8416 5.649067 33.092267 11.451733 42.1376 15.957333l2.338133 1.194667-31.778133 60.416-3.8912-1.826134a250.606933 250.606933 0 0 0-28.433067-10.359466 318.3616 318.3616 0 0 0-91.528533-13.243734 330.990933 330.990933 0 0 0-116.309333 21.384534l-4.8128 1.911466a163.003733 163.003733 0 0 0-7.714134 3.328l-0.7168 0.341334-30.634666-60.996267 5.205333-2.474667c9.557333-4.369067 23.552-9.745067 41.335467-15.035733 35.157333-10.461867 73.386667-16.725333 113.646933-16.725333z" fill="#00B386" p-id="3503"></path><path d="M72.465067 719.837867L302.0288 113.032533c21.111467-58.9312 103.389867-59.562667 125.678933-3.805866l1.2288 3.2768 99.84 255.6928a34.133333 34.133333 0 0 1-62.532266 27.272533l-1.058134-2.440533L365.602133 137.898667 136.8576 742.519467H636.928a34.133333 34.133333 0 0 1 34.030933 31.5904l0.1024 2.56a34.133333 34.133333 0 0 1-31.5904 34.030933l-2.56 0.085333H135.850667c-45.704533 0-77.8752-44.322133-64.375467-87.9104l1.024-3.037866z" fill="#444444" p-id="3504"></path><path d="M361.335467 636.603733a34.133333 34.133333 0 0 1 34.048 31.5904l0.085333 2.56v250.8288a34.133333 34.133333 0 0 1-68.164267 2.56l-0.1024-2.56V670.737067a34.133333 34.133333 0 0 1 34.133334-34.133334zM679.355733 274.909867c-147.780267 0-267.554133 119.978667-267.554133 267.946666 0 147.968 119.790933 267.946667 267.554133 267.946667 147.797333 0 267.554133-119.978667 267.554134-267.946667 0-147.968-119.773867-267.946667-267.554134-267.946666z m0 68.266666c110.062933 0 199.287467 89.378133 199.287467 199.68 0 110.2848-89.2416 199.68-199.287467 199.68-110.045867 0-199.287467-89.412267-199.287466-199.68 0-110.2848 89.2416-199.68 199.287466-199.68z" fill="#444444" p-id="3505"></path><path d="M681.6768 636.603733a34.133333 34.133333 0 0 1 34.048 31.5904l0.085333 2.56v250.8288a34.133333 34.133333 0 0 1-68.181333 2.56l-0.085333-2.56V670.737067a34.133333 34.133333 0 0 1 34.133333-34.133334z" fill="#444444" p-id="3506"></path></svg>